<svg xmlns="http://www.w3.org/2000/svg" width="50" height="50" fill="none"><path fill="#fff" fill-rule="evenodd" d="M49.968 15.212v-1.823h-9.565v1.823h3.839v7.87h2.015v-7.87H50h-.032zM34.421 36.357h1.983l-3.71-9.66h-2.88l-3.806 9.66h1.983l1.376-3.23h3.71l1.344 3.23zm-1.791-4.926h-2.72l.992-2.815h.704l.992 2.815h.032zM34.42 9.678h1.983L32.694.017h-2.88l-3.806 9.66h1.983l1.376-3.23h3.71l1.344 3.23zM32.63 4.75h-2.72l.992-2.815h.704l.992 2.815h.032zM14.3 49.985h7.965v-2.016H16.41v-7.645h-2.112v9.66zm0-26.904h7.965v-2.015H16.41v-7.645h-2.112v9.66zM8.06 30.183c0-1.92-1.407-2.975-3.614-2.975H0v9.661h2.015v-3.743h2.432c2.207 0 3.614-1.055 3.614-3.007v.064zm-1.759.064c0 .864-.576 1.216-1.855 1.216H2.303v-2.431h2.144c1.247 0 1.855.352 1.855 1.215zM2.015 1.808h5.759V-.015H0v9.66h2.015V5.712h4.543V3.888H2.015V1.776v.032zM43.25 40.292h-2.24v9.66h1.824v-6.94h.256l4.607 6.94h2.271v-9.66h-1.823v7.038h-.256l-4.639-7.038z" clip-rule="evenodd"/></svg>