<svg xmlns="http://www.w3.org/2000/svg" width="40" height="40" fill="none"><path fill="#5A24B6" d="M21.45 36.667a3.067 3.067 0 0 1-2.15-.884l-10.683-10.7a1.666 1.666 0 0 1-.484-1.016L6.667 8.483A1.667 1.667 0 0 1 7.15 7.15a1.667 1.667 0 0 1 1.333-.483l15.584 1.466c.384.039.744.21 1.016.484l10.7 10.683a3.033 3.033 0 0 1 0 4.283l-12.2 12.2a3.033 3.033 0 0 1-2.133.884zm-10-13.517l10 10L33.2 21.4l-10-10-13.017-1.217L11.45 23.15z"/><path fill="#5A24B6" d="M17.5 20a2.5 2.5 0 1 0 0-5 2.5 2.5 0 0 0 0 5z"/></svg>