<svg xmlns="http://www.w3.org/2000/svg" width="81" height="28" fill="none"><g clip-path="url(#clip0)"><path fill="#FF4646" d="M64.498 21.485c9.136 0 14.502-3.5 14.502-3.5l-.004 5.182s-5.204 4.318-14.494 4.318h-.004c-9.29 0-14.494-4.318-14.494-4.318L50 17.985s5.363 3.5 14.498 3.5z"/><path fill="#fff" d="M73.19.101a7.69 7.69 0 1 0 0 15.38 7.69 7.69 0 0 0 0-15.38zm0 10.553c-1.541 0-2.787-1.323-2.787-2.864 0-1.54 1.25-2.864 2.786-2.864 1.537 0 2.787 1.324 2.787 2.864.004 1.541-1.246 2.864-2.787 2.864zM56.186.49H50v15h6.26c4.562 0 7.74-3.357 7.74-7.5v-.193C64.004 3.654 60.686.49 56.186.49zm3.031 7.5c0 1.523-1.04 2.721-2.792 2.774-.918.03-1.745 0-1.745 0v-5.55s.739-.03 1.745 0c1.79.054 2.792 1.252 2.792 2.775zM40.001.49v8.215c0 1.081-.895 1.96-1.997 1.96s-1.998-.879-1.998-1.96V.49H31v8.72c0 3.83 2.941 6.28 6.808 6.28h.384c3.867 0 6.808-2.45 6.808-6.28V.49h-4.999zM22.192.101a7.692 7.692 0 1 0 0 15.384 7.692 7.692 0 0 0 0-15.384zm0 10.557c-1.541 0-2.788-1.324-2.788-2.865 0-1.541 1.25-2.865 2.788-2.865 1.541 0 2.788 1.324 2.788 2.865 0 1.541-1.247 2.865-2.788 2.865z"/><path fill="#fff" d="M16 .485h-5.488l-2.364 5.09L5.435.485H0l5.526 9.91-2.573 5.09h5.502L16 .485z"/></g><defs><clipPath id="clip0"><path fill="#fff" d="M0 0h81v27H0z" transform="translate(0 .485)"/></clipPath></defs></svg>