<svg xmlns="http://www.w3.org/2000/svg" width="46" height="42" fill="none"><g clip-path="url(#clip0)"><path fill="#FF4646" d="M21.497 32.162C35.043 32.162 43 27.004 43 27.004l-.005 7.637s-7.717 6.363-21.492 6.363h-.006C7.722 41.004.005 34.64.005 34.64L0 27.004s7.952 5.158 21.497 5.158z"/><path fill="#fff" d="M34.198.004c-6.262 0-11.34 5.077-11.34 11.34 0 6.262 5.078 11.34 11.34 11.34s11.34-5.078 11.34-11.34c0-6.263-5.078-11.34-11.34-11.34zm0 15.563c-2.272 0-4.11-1.951-4.11-4.223 0-2.273 1.843-4.224 4.11-4.224 2.267 0 4.11 1.95 4.11 4.224.005 2.272-1.838 4.223-4.11 4.223zM9.123 1.004H0V23h9.232c6.728 0 11.414-4.923 11.414-10.998v-.283C20.652 5.644 15.76 1.004 9.123 1.004zm4.47 10.998c0 2.235-1.534 3.992-4.118 4.07-1.354.044-2.573 0-2.573 0v-8.14s1.089-.044 2.573 0c2.639.078 4.118 1.835 4.118 4.07z"/></g><defs><clipPath id="clip0"><path fill="#fff" d="M0 0h46v41H0z" transform="translate(0 .004)"/></clipPath></defs></svg>