<svg width="90" height="91" viewBox="0 0 90 91" fill="none" xmlns="http://www.w3.org/2000/svg">
    <path d="M85.4999 74.7055C76.5474 69.958 69.6804 67.2959 63.5672 66.2753L64.1999 65.4055C64.4999 65.1055 64.6499 64.6555 64.4999 64.2055L63.0942 58.5827C66.8121 53.3268 68.9999 46.756 68.9999 40.5056V34.5056H70.4998H73.4998C74.3998 34.5056 74.9997 33.9056 74.9997 33.0056C74.9997 32.1056 74.3998 31.5057 73.4998 31.5057H71.9999V30.0058C71.9999 18.1558 64.1999 8.10586 52.4999 4.80579V4.50555C52.4999 2.10547 50.5499 0.00561523 47.9999 0.00561523H41.9999C39.5998 0.00561523 37.5 1.95553 37.5 4.50555V4.80561C25.7999 8.10568 17.9999 18.1557 17.9999 30.0056V31.5055H16.5C15.6 31.5055 15.0001 32.1055 15.0001 33.0055C15.0001 33.9054 15.6 34.5054 16.5 34.5054H19.5H20.9999V40.5054C20.9999 46.7558 23.1877 53.3267 26.9056 58.5827L25.4999 64.2055C25.4999 64.5056 25.4999 65.1055 25.7999 65.4055L26.4326 66.2753C20.3196 67.2961 13.4525 69.958 4.49994 74.7055C1.65004 76.0556 0 78.9055 0 82.0555V88.5055C0 89.4055 0.599932 90.0054 1.49992 90.0054H37.5H38.0999H51.8999H52.4999H88.4999C89.3999 90.0054 89.9998 89.4055 89.9998 88.5055V82.0555C90 79.0555 88.1998 76.2056 85.4999 74.7055ZM44.1005 73.3171L45.0085 71.274L47.2504 76.2065L48.7167 79.5055H41.4001L44.1005 73.3171ZM40.26 82.5055H49.7286L50.5857 87.0054H39.36L40.26 82.5055ZM60.7499 61.5055L61.3498 64.2055L59.8175 66.3095C59.7198 66.3893 59.6293 66.4862 59.5498 66.6054L53.3107 75.2443L51.3309 77.9626L47.2871 68.8639C52.1208 68.2744 56.4358 65.8478 59.9208 62.3607C59.9594 62.3224 59.9982 62.2845 60.0366 62.2459C60.0459 62.2365 60.0552 62.227 60.0645 62.2175C60.2956 61.9857 60.5242 61.7488 60.7499 61.5055ZM58.7957 10.9765C58.9622 11.0873 59.1274 11.1999 59.2907 11.3146C61.2027 12.7395 62.9677 14.4086 64.35 16.2056L57.45 17.5555L58.7957 10.9765ZM32.55 17.5555L25.65 16.2056C27.0323 14.4085 28.7975 12.7393 30.7095 11.3144C30.8726 11.1999 31.0378 11.0873 31.2043 10.9765L32.55 17.5555ZM20.9999 30.0056C20.9999 26.0141 22.0048 22.2485 23.8236 18.9577L34.2001 21.0057C34.35 21.0057 34.35 21.0057 34.5001 21.0057C34.9501 21.0057 35.2502 20.8558 35.7002 20.7057C36.1502 20.4056 36.3001 19.8057 36.1502 19.3557L34.0909 9.3336C35.1755 8.81177 36.3137 8.36356 37.5001 7.99506V12.0057C37.5001 12.9057 38.1001 13.5056 39 13.5056C39.9 13.5056 40.5 12.9057 40.5 12.0057V6.00565V4.50555C40.5 3.7555 41.0999 3.00563 41.9999 3.00563H47.9999C48.75 3.00563 49.4998 3.60557 49.4998 4.50555V6.00547V12.0055C49.4998 12.9055 50.0998 13.5054 50.9998 13.5054C51.8998 13.5054 52.4997 12.9055 52.4997 12.0055V7.99506C53.7256 8.37571 54.9007 8.84108 56.0176 9.38525L53.9998 19.2058C53.9998 19.6558 54.1497 20.2557 54.4498 20.5557C54.7498 20.8558 55.0497 21.0057 55.4997 21.0057C55.6496 21.0057 55.6496 21.0057 55.7998 21.0057L66.109 18.8353C67.9705 22.155 68.9997 25.9648 68.9997 30.0056V31.5055H67.4998H22.5H21.0001V30.0056H20.9999ZM24 34.5056H65.9999V40.5056C65.9999 47.0462 63.7561 52.8584 60.3874 57.2763L60.2999 57.3055C60.1499 57.4554 59.9998 57.6055 59.8499 57.7555C59.0952 58.7618 58.2987 59.6793 57.4664 60.5065C53.9346 63.797 49.7218 65.7899 45.6626 65.9874C45.4583 65.8997 45.2292 65.8555 44.9999 65.8555C44.7694 65.8555 44.5615 65.9007 44.3751 65.9894C41.8903 65.8754 39.3473 65.0878 36.9367 63.7405C34.4946 62.3374 32.1972 60.3148 30.1498 57.7555C29.9998 57.6055 29.8497 57.4554 29.6998 57.3055L29.6122 57.2763C26.2435 52.8583 23.9998 47.046 23.9998 40.5056V34.5056H24ZM42.7128 68.8643L38.6689 77.963L36.6891 75.2446L30.45 66.6058C30.4023 66.558 30.3494 66.5107 30.2947 66.464L28.65 64.2057L29.2499 61.5057C29.4533 61.7246 29.6596 61.938 29.8678 62.148C33.3891 65.7492 37.7809 68.2628 42.7128 68.8643ZM3.00002 82.0555C3.00002 80.1056 4.04994 78.3054 5.8501 77.4054C15.4113 72.3259 22.2942 69.7766 28.4254 69.0151L37.3766 81.323L36.2402 87.0052H3.00002V82.0555ZM87 87.0056H53.76L52.6235 81.3233L61.6717 68.8822C67.7814 69.8041 74.7874 72.3515 84.1499 77.2557C85.9499 78.3056 87 80.1058 87 82.0557V87.0056Z" fill="black" fill-opacity="0.4"/>
</svg>
