<svg width="79" height="91" viewBox="0 0 79 91" fill="none" xmlns="http://www.w3.org/2000/svg">
    <path d="M78.0557 72.1201C78.0557 62.4352 67.0259 54.8398 57.5715 54.48L52.748 50.1464C58.6228 45.8602 62.1886 38.9721 62.1886 31.6518V20.0276C62.1886 9.34518 53.4697 0.653809 42.7529 0.653809H35.7079C25.0055 0.653809 16.396 9.31422 16.396 20.0276V31.6518C16.396 38.9597 19.9144 45.8347 25.7128 50.1133L20.8528 54.48C11.4191 54.8391 0.368652 62.4153 0.368652 72.1201V89.0687C0.368652 90.0415 1.15709 90.8299 2.1299 90.8299H76.2945C77.2673 90.8299 78.0557 90.0415 78.0557 89.0687V72.1201ZM35.3109 79.2057H43.1038L44.9504 87.3074H33.4107L35.3109 79.2057ZM43.2551 75.6832H35.1995L33.8483 71.4734L39.2132 68.7909L44.693 71.5318L43.2551 75.6832ZM39.2125 63.4989L33.0922 53.7081C35.0798 54.2605 37.1451 54.5474 39.2304 54.5474C41.2958 54.5474 43.346 54.2661 45.3232 53.7225L39.2125 63.4989ZM41.7333 66.1132L50.1894 52.5825L54.7501 56.6802L48.9469 69.721L41.7333 66.1132ZM35.7079 4.17631H42.7529C51.5275 4.17631 58.6661 11.2867 58.6661 20.0276V21.4834L55.3589 16.7211C55.0597 16.2897 54.5829 16.0145 54.0593 15.9705C53.5351 15.9265 53.0205 16.1184 52.6531 16.4941C49.0728 20.1556 44.9277 21.7888 39.2132 21.7888C33.4995 21.7888 29.3536 20.1556 25.7706 16.4941C25.4018 16.1164 24.8824 15.9251 24.3575 15.9712C23.8318 16.0173 23.3544 16.2966 23.0572 16.7328L19.9186 21.332V20.0276C19.9186 11.2867 27.0014 4.17631 35.7079 4.17631ZM19.9186 31.6518V27.581L24.8102 20.4129C28.7289 23.7462 33.3598 25.3113 39.2132 25.3113C45.0728 25.3113 49.7071 23.7427 53.6266 20.4025L58.6661 27.6594V31.6518C58.6661 42.1994 50.0449 51.0256 39.2304 51.0256C28.451 51.0256 19.9186 42.2269 19.9186 31.6518ZM28.235 52.5832L36.6924 66.1132L29.4775 69.721L23.6743 56.6802L28.235 52.5832ZM3.89116 72.1201C3.89116 64.8645 12.7112 58.5997 20.4187 58.03L27.0083 72.8363C27.2037 73.2752 27.5704 73.6157 28.0231 73.7781C28.4758 73.9405 28.9746 73.9102 29.4052 73.6956L30.6601 73.0674L32.0891 77.5173L29.7926 87.3074H3.89116V72.1201ZM74.5332 87.3074H48.563L46.338 77.5442L47.8702 73.1204L49.0191 73.6956C49.4526 73.9123 49.9527 73.9391 50.4013 73.7781C50.854 73.6157 51.2207 73.2752 51.4161 72.8363L58.0056 58.03C65.7132 58.6004 74.5332 64.8645 74.5332 72.1201V87.3074Z" fill="black" fill-opacity="0.4"/>
</svg>
