<svg xmlns="http://www.w3.org/2000/svg" width="40" height="40" fill="none"><path fill="#5A24B6" d="M36.1 7.083a1.667 1.667 0 0 0-2.35.15l-3.117 3.584-1.05-1.184a1.67 1.67 0 0 0-2.5 2.217l2.317 2.6a1.666 1.666 0 0 0 1.25.55 1.665 1.665 0 0 0 1.233-.567l4.35-5a1.667 1.667 0 0 0-.133-2.35zM16.667 18.333a6.667 6.667 0 1 0 0-13.334 6.667 6.667 0 0 0 0 13.334zm0-10a3.334 3.334 0 1 1 0 6.668 3.334 3.334 0 0 1 0-6.668zM16.667 21.667A11.667 11.667 0 0 0 5 33.333a1.667 1.667 0 0 0 3.333 0 8.334 8.334 0 0 1 16.667 0 1.667 1.667 0 0 0 3.333 0 11.666 11.666 0 0 0-11.666-11.666z"/></svg>